<svg xmlns="http://www.w3.org/2000/svg" width="256" height="256" viewBox="0 0 256 256">
  <rect width="256" height="256" fill="#F7F0FF"/>
  <rect x="30" y="155" width="196" height="48" rx="18" fill="#DCC8FF"/>
  <circle cx="128" cy="82" r="42" fill="#F4D1B4"/>
  <path d="M89 82 Q128 35 167 82" fill="#5B4A73"/>
  <rect x="103" y="126" width="50" height="52" rx="18" fill="#E9E5FF"/>
  <rect x="80" y="138" width="18" height="52" rx="9" fill="#F4D1B4" transform="rotate(-25 89 138)"/>
  <rect x="158" y="138" width="18" height="52" rx="9" fill="#F4D1B4" transform="rotate(25 167 138)"/>
  <rect x="98" y="177" width="18" height="54" rx="9" fill="#F4D1B4" transform="rotate(25 107 177)"/>
  <rect x="140" y="177" width="18" height="54" rx="9" fill="#F4D1B4" transform="rotate(-25 149 177)"/>
  <circle cx="119" cy="80" r="5" fill="#2E223A"/>
  <circle cx="138" cy="80" r="5" fill="#2E223A"/>
  <path d="M116 98 Q128 107 140 98" stroke="#A85E7C" stroke-width="4" fill="none" stroke-linecap="round"/>
</svg>
